<svg width="146" height="167" fill="none" xmlns="http://www.w3.org/2000/svg"><path fill-rule="evenodd" clip-rule="evenodd" d="M52.025 40.687c.657-1.425 1.426-2.533 1.934-3.117a12.257 12.257 0 01-.53 3.687 12.258 12.258 0 013.066 2.114c-.774-.024-2.11-.211-3.602-.697-.688 1.517-1.558 2.564-2.128 3.052.039-1.277.307-2.5.685-3.604-1.067-.473-2.148-1.107-3.111-1.946.745-.087 2.105-.014 3.686.511z" fill="url(#paint0_linear)"/><path fill-rule="evenodd" clip-rule="evenodd" d="M46.833 26.405c.438-.95.95-1.687 1.288-2.075a8.157 8.157 0 01-.354 2.454c.674.325 1.373.78 2.042 1.407-.515-.016-1.404-.14-2.398-.464-.458 1.01-1.037 1.707-1.416 2.032.026-.85.204-1.665.456-2.4a8.225 8.225 0 01-2.071-1.294c.496-.059 1.401-.01 2.453.34z" fill="url(#paint1_linear)"/><path fill-rule="evenodd" clip-rule="evenodd" d="M32.783 12.207c.656-1.426 1.426-2.533 1.934-3.117a12.26 12.26 0 01-.531 3.687 12.26 12.26 0 013.067 2.113c-.774-.023-2.11-.21-3.602-.697-.688 1.518-1.558 2.565-2.128 3.053.039-1.277.307-2.5.685-3.605-1.067-.472-2.148-1.106-3.111-1.945.745-.087 2.105-.014 3.686.511z" fill="url(#paint2_linear)"/><path fill-rule="evenodd" clip-rule="evenodd" d="M30.556 44.172c.967-2.097 2.098-3.727 2.846-4.586a18.033 18.033 0 01-.781 5.424 18.032 18.032 0 014.512 3.11c-1.139-.035-3.103-.31-5.3-1.026-1.011 2.233-2.291 3.774-3.13 4.491.057-1.878.452-3.678 1.007-5.303-1.569-.695-3.159-1.627-4.576-2.861 1.096-.129 3.096-.021 5.422.751z" fill="url(#paint3_linear)"/><circle cx="36.369" cy="29.816" r=".847" transform="rotate(21.387 36.37 29.816)" fill="#2F235A"/><circle cx="57.33" cy="19.172" r=".847" transform="rotate(21.387 57.33 19.172)" fill="#FE9076"/><circle cx="17.095" cy="23.796" r=".847" transform="rotate(21.387 17.095 23.796)" fill="#FFA400"/><circle cx="35.272" cy="57.882" r=".847" transform="rotate(21.387 35.272 57.882)" fill="#23BB86"/><path d="M56.687 15.126c-.824-3.145-3.797-10.34-9.099-13.95" stroke="#FE9076" stroke-width=".737" stroke-linecap="round"/><path d="M14.596 20.381c-2.05-2.524-7.728-7.848-14.048-8.947" stroke="#FFA400" stroke-width=".737" stroke-linecap="round"/><path d="M31.67 59.112c-1.816.662-6.388 2.773-10.146 5.916" stroke="#23BB86" stroke-width=".737" stroke-linecap="round"/><path fill-rule="evenodd" clip-rule="evenodd" d="M93.975 40.687c-.656-1.425-1.426-2.533-1.934-3.117-.01 1.377.202 2.613.53 3.687a12.26 12.26 0 00-3.066 2.114c.774-.024 2.11-.211 3.602-.697.688 1.517 1.558 2.564 2.128 3.052-.039-1.277-.307-2.5-.685-3.604 1.067-.473 2.148-1.107 3.111-1.946-.745-.087-2.105-.014-3.686.511z" fill="url(#paint4_linear)"/><path fill-rule="evenodd" clip-rule="evenodd" d="M99.167 26.405c-.438-.95-.95-1.687-1.288-2.075a8.16 8.16 0 00.354 2.454 8.158 8.158 0 00-2.042 1.407c.515-.016 1.404-.14 2.398-.464.458 1.01 1.037 1.707 1.416 2.032a8.215 8.215 0 00-.456-2.4 8.223 8.223 0 002.071-1.294c-.496-.059-1.401-.01-2.453.34z" fill="url(#paint5_linear)"/><path fill-rule="evenodd" clip-rule="evenodd" d="M113.217 12.207c-.656-1.426-1.426-2.533-1.934-3.117-.01 1.377.202 2.613.531 3.687a12.28 12.28 0 00-3.067 2.113c.774-.023 2.11-.21 3.602-.697.688 1.518 1.558 2.565 2.128 3.053-.039-1.277-.307-2.5-.685-3.605 1.067-.472 2.148-1.106 3.111-1.945-.745-.087-2.105-.014-3.686.511z" fill="url(#paint6_linear)"/><path fill-rule="evenodd" clip-rule="evenodd" d="M115.444 44.172c-.967-2.097-2.098-3.727-2.846-4.586a18.011 18.011 0 00.781 5.424 18.042 18.042 0 00-4.512 3.11c1.139-.035 3.103-.31 5.299-1.026 1.013 2.233 2.292 3.774 3.131 4.491-.057-1.878-.452-3.678-1.007-5.303 1.569-.695 3.159-1.627 4.576-2.861-1.096-.129-3.096-.021-5.422.751z" fill="url(#paint7_linear)"/><circle r=".847" transform="scale(-1 1) rotate(21.387 -133.765 -275.382)" fill="#2F235A"/><circle r=".847" transform="scale(-1 1) rotate(21.387 -95.1 -225.203)" fill="#FE9076"/><circle r=".847" transform="scale(-1 1) rotate(21.387 -127.463 -329.43)" fill="#FFA400"/><circle r=".847" transform="scale(-1 1) rotate(21.387 -208.628 -264.254)" fill="#23BB86"/><path d="M89.314 15.126c.823-3.145 3.796-10.34 9.098-13.95" stroke="#FE9076" stroke-width=".737" stroke-linecap="round"/><path d="M131.404 20.381c2.049-2.524 7.728-7.848 14.048-8.947" stroke="#FFA400" stroke-width=".737" stroke-linecap="round"/><path d="M114.33 59.112c1.816.662 6.388 2.773 10.146 5.916" stroke="#23BB86" stroke-width=".737" stroke-linecap="round"/><path fill="url(#paint8_linear)" d="M27.535 104.439h89.85v62.11h-89.85z"/><mask id="a" maskUnits="userSpaceOnUse" x="27" y="104" width="91" height="63"><path fill="#C4C4C4" d="M27.535 104.439h89.85v62.11h-89.85z"/></mask><g mask="url(#a)"><path d="M31.787 102.858h61.181L79.14 126.869H17.958l13.829-24.011z" fill="#000" fill-opacity=".07"/><path fill="url(#paint9_linear)" d="M88.637 104.439h89.85v62.11h-89.85z"/></g><path d="M27.456 104.439h61.182l-11.819 19.723H15.637l11.819-19.723z" fill="url(#paint10_linear)"/><mask id="b" maskUnits="userSpaceOnUse" x="88" y="104" width="30" height="63"><path fill="#C4C4C4" d="M88.638 104.439h28.748v62.11H88.638z"/></mask><g mask="url(#b)"><path d="M113.886 104.336H85.093l13.53 22.707h28.792l-13.529-22.707z" fill="#000" fill-opacity=".07"/></g><path d="M117.431 104.439H88.638l11.818 19.723h28.793l-11.818-19.723z" fill="url(#paint11_linear)"/><circle cx="59.386" cy="87.241" r="8.491" fill="url(#paint12_linear)"/><circle cx="85.786" cy="75.891" r="8.205" fill="url(#paint13_linear)"/><circle cx="67.877" cy="54.985" r="6.616" fill="url(#paint14_linear)"/><circle cx="90.288" cy="53.987" r="1.65" fill="#FFA800" fill-opacity=".23"/><circle cx="79.232" cy="91.49" r="1.65" fill="#FFA800" fill-opacity=".23"/><circle cx="52.138" cy="66.037" r="1.65" fill="#FFA800" fill-opacity=".23"/><path d="M117.598 104.733H27.464L13.622 19.385H134.22l-16.622 85.348z" fill="url(#paint15_linear)"/><defs><linearGradient id="paint0_linear" x1="53.709" y1="38.474" x2="50.71" y2="46.131" gradientUnits="userSpaceOnUse"><stop stop-color="#FFE89E"/><stop offset="1" stop-color="#FFBF1A"/></linearGradient><linearGradient id="paint1_linear" x1="47.955" y1="24.931" x2="45.958" y2="30.028" gradientUnits="userSpaceOnUse"><stop stop-color="#FFE89E"/><stop offset="1" stop-color="#FFBF1A"/></linearGradient><linearGradient id="paint2_linear" x1="34.467" y1="9.993" x2="31.468" y2="17.651" gradientUnits="userSpaceOnUse"><stop stop-color="#FFE89E"/><stop offset="1" stop-color="#FFBF1A"/></linearGradient><linearGradient id="paint3_linear" x1="33.035" y1="40.915" x2="28.622" y2="52.182" gradientUnits="userSpaceOnUse"><stop stop-color="#FFE89E"/><stop offset="1" stop-color="#FFBF1A"/></linearGradient><linearGradient id="paint4_linear" x1="92.291" y1="38.474" x2="95.29" y2="46.131" gradientUnits="userSpaceOnUse"><stop stop-color="#FFE89E"/><stop offset="1" stop-color="#FFBF1A"/></linearGradient><linearGradient id="paint5_linear" x1="98.046" y1="24.931" x2="100.042" y2="30.028" gradientUnits="userSpaceOnUse"><stop stop-color="#FFE89E"/><stop offset="1" stop-color="#FFBF1A"/></linearGradient><linearGradient id="paint6_linear" x1="111.533" y1="9.993" x2="114.532" y2="17.651" gradientUnits="userSpaceOnUse"><stop stop-color="#FFE89E"/><stop offset="1" stop-color="#FFBF1A"/></linearGradient><linearGradient id="paint7_linear" x1="112.965" y1="40.915" x2="117.378" y2="52.182" gradientUnits="userSpaceOnUse"><stop stop-color="#FFE89E"/><stop offset="1" stop-color="#FFBF1A"/></linearGradient><linearGradient id="paint8_linear" x1="57.549" y1="92.94" x2="21.739" y2="191.572" gradientUnits="userSpaceOnUse"><stop stop-color="#FFD481"/><stop offset="1" stop-color="#FA620C"/></linearGradient><linearGradient id="paint9_linear" x1="42.865" y1="100.5" x2="151.545" y2="216.639" gradientUnits="userSpaceOnUse"><stop stop-color="#FFD481"/><stop offset=".833" stop-color="#FA620C"/></linearGradient><linearGradient id="paint10_linear" x1="28.715" y1="97.39" x2="25.807" y2="139.413" gradientUnits="userSpaceOnUse"><stop stop-color="#FFD481"/><stop offset="1" stop-color="#FA620C"/></linearGradient><linearGradient id="paint11_linear" x1="121.974" y1="97.39" x2="127.145" y2="138.971" gradientUnits="userSpaceOnUse"><stop stop-color="#FFD481"/><stop offset="1" stop-color="#FA620C"/></linearGradient><linearGradient id="paint12_linear" x1="60.029" y1="75.948" x2="58.414" y2="98.867" gradientUnits="userSpaceOnUse"><stop stop-color="#FF9F81"/><stop offset="1" stop-color="#F53838"/></linearGradient><linearGradient id="paint13_linear" x1="86.408" y1="64.979" x2="84.847" y2="87.125" gradientUnits="userSpaceOnUse"><stop stop-color="#FF9F81"/><stop offset="1" stop-color="#F53838"/></linearGradient><linearGradient id="paint14_linear" x1="68.378" y1="46.185" x2="67.119" y2="64.044" gradientUnits="userSpaceOnUse"><stop stop-color="#FF9F81"/><stop offset="1" stop-color="#F53838"/></linearGradient><linearGradient id="paint15_linear" x1="72.93" y1="19.385" x2="72.93" y2="200.709" gradientUnits="userSpaceOnUse"><stop stop-color="#fff" stop-opacity="0"/><stop offset="1" stop-color="#FE9277"/></linearGradient></defs></svg>