<svg width="34" height="35" fill="none" xmlns="http://www.w3.org/2000/svg"><circle cx="17" cy="17.381" r="16.8" fill="#F53838"/><path d="M22.25 17.38a5.25 5.25 0 01-10.5 0c0-.299.031-.59.086-.874H10V23.5c0 .487.394.88.88.88h12.242A.88.88 0 0024 23.5v-6.994h-1.836c.054.283.086.575.086.875zM17 20.88a3.5 3.5 0 002.474-5.976A3.5 3.5 0 1017 20.88zm4.2-7.174h2.098a.527.527 0 00.527-.525v-2.099a.527.527 0 00-.527-.526H21.2a.527.527 0 00-.527.526v2.099a.53.53 0 00.527.525zM17 .58a16.8 16.8 0 100 33.6 16.8 16.8 0 000-33.6zm8.75 23.605a1.95 1.95 0 01-1.944 1.945H10.194a1.95 1.95 0 01-1.944-1.945v-13.61a1.95 1.95 0 011.944-1.944h13.612a1.95 1.95 0 011.944 1.944v13.611z" fill="#fff"/></svg>