<svg width="35" height="35" fill="none" xmlns="http://www.w3.org/2000/svg"><circle cx="17.4" cy="17.381" r="16.8" fill="#F53838"/><path d="M17.4.58C8.121.58.6 8.103.6 17.38c0 9.28 7.521 16.8 16.8 16.8s16.8-7.52 16.8-16.8c0-9.278-7.522-16.8-16.8-16.8zm6.834 13.763c.007.143.008.287.008.427 0 4.375-3.326 9.416-9.413 9.416A9.336 9.336 0 019.758 22.7a6.6 6.6 0 00.789.044c1.55 0 2.977-.527 4.109-1.416a3.316 3.316 0 01-3.09-2.296 3.325 3.325 0 001.492-.058 3.311 3.311 0 01-2.655-3.244v-.04c.447.246.958.397 1.5.414a3.308 3.308 0 01-1.024-4.42 9.407 9.407 0 006.82 3.46 3.31 3.31 0 015.639-3.02 6.644 6.644 0 002.1-.803 3.325 3.325 0 01-1.454 1.833 6.648 6.648 0 001.9-.524 6.711 6.711 0 01-1.65 1.714z" fill="#fff"/></svg>