<svg width="510" height="416" fill="none" xmlns="http://www.w3.org/2000/svg"><path d="M381.172 294.036l-39.722-23.318-31.201 46.432c18.228 15.212 48.851 26.275 64.675 22.897 32.474-6.933 98.097-99.136 107.203-106.156 30.998-23.897 41.074-32.966 2.286-14.397-36.981 17.704-17.394 0-26.454 0-10.885.76-7.278 10.421-3.238 17.343l-73.549 57.199z" fill="url(#paint0_linear)"/><path d="M155.79 258.711c11.207-7.782 55.489-21.8 74.937-27.837l20.575 2.245c12.964 3.214 40.771 8.693 53.561 13.879 12.791 5.185 36.003 21.722 57.658 35.512l-5.113 17.708a50.146 50.146 0 01-32.453 33.706c-4.045 25.722-7.533 67.539-6.957 80.503l-150.486-.117-6.889-63.648-30.989 3.32-26.177-20.058c32.777-56.694 38.325-65.485 52.333-75.213z" fill="url(#paint1_linear)"/><path d="M112.739 404.965c-47.68-6.045-16.67-54.37-8.216-70.329a65.104 65.104 0 0036.164 15.041l16.431 1.459-6.728 15.522 72.639 17.006 10.191 28.271c-7.259-1.236-61.188.549-120.481-6.97z" fill="url(#paint2_linear)"/><path d="M235.798 104c2.347-4.243 9.077-10.185 17.224 0h-17.224z" fill="#30235B"/><ellipse cx="239.71" cy="249.383" rx="25.973" ry="18.508" fill="#CF0606"/><path d="M218.429 248.388l3.63-36.149h35.345l4.06 36.149c-1.419 4.257-8.119 12.893-20.525 12.893-15.813 0-21.497-8.636-22.51-12.893z" fill="url(#paint3_linear)"/><mask id="a" maskUnits="userSpaceOnUse" x="218" y="212" width="44" height="50"><path d="M218.429 248.388l3.63-36.149h35.345l4.068 36.222c-1.419 4.257-8.142 12.821-20.549 12.821-15.812 0-21.481-8.637-22.494-12.894z" fill="url(#paint4_linear)"/></mask><g mask="url(#a)"><path opacity=".1" d="M270.142 213.623c-31.959 39.542-49.818 7.748-59.043 2.979l6.339-26.732 37.842-4.519 14.862 28.272z" fill="#000"/></g><path d="M239.097 226.751c-38.117 0-44.672-54.715-32.895-79.741 26.498-32.387 59.622-13.495 72.871 0 3.19 20.855 6.707 79.741-39.976 79.741z" fill="url(#paint5_linear)"/><path d="M279.724 184.893l-7.468-5.501 1.155-4.096 8.53 5.625-2.217 3.972zm-77.805-1.595l7.468-5.502-1.155-4.095-8.53 5.624 2.217 3.973z" fill="#111"/><path d="M208.753 150.298c27.024 17.607 56.982 7.336 68.583 0-2.443 7.704 1.018 22.513 3.053 28.954 17.584-22.898 11.835-35.263 6.763-38.584-.845-11.412-11.22-39.946-46.049-38.594-34.829 1.353-41.588 26.055-40.601 35.213-13.188 17.922-5.342 35.444 1.019 41.965 7.232-14.04 7.067-23.889 7.232-28.954z" fill="#30235B"/><g filter="url(#filter0_d)"><path d="M243.871 119.695c-40.343-1.351-49.329 25.181-50.535 40.587-.097 1.234-1.106 2.205-2.343 2.205-1.321 0-2.373-1.101-2.255-2.416 1.76-19.754 12.292-54.272 55.133-51.892 43.256 2.403 51.718 36.838 50.391 56.034-.071 1.027-.939 1.803-1.969 1.803-1.123 0-2.024-.911-2.069-2.033-.636-15.927-11.224-43.27-46.353-44.288z" fill="#fff"/></g><g filter="url(#filter1_d)"><rect x="295.069" y="172.316" width="5.476" height="21.013" rx="2.738" transform="rotate(10.054 295.069 172.316)" fill="#24C28A"/></g><g filter="url(#filter2_d)"><rect x="283.305" y="158.693" width="16.867" height="43.773" rx="8.433" transform="rotate(10.054 283.305 158.693)" fill="#fff"/></g><g filter="url(#filter3_d)"><rect width="5.476" height="21.013" rx="2.738" transform="scale(-1 1) rotate(10.054 -1072.532 -971.98)" fill="#24C28A"/></g><g filter="url(#filter4_d)"><rect width="16.867" height="43.773" rx="8.433" transform="scale(-1 1) rotate(10.054 -1000.904 -1044.788)" fill="#fff"/></g><mask id="b" maskUnits="userSpaceOnUse" x="182" y="160" width="23" height="44"><rect width="16.867" height="43.773" rx="8.433" transform="scale(-1 1) rotate(10.054 -1000.904 -1044.788)" fill="#fff"/></mask><g mask="url(#b)"><path fill="#E8E8E8" d="M189.828 158.693l21.6-3.847 8.331 46.781-21.6 3.847z"/></g><mask id="c" maskUnits="userSpaceOnUse" x="277" y="160" width="22" height="44"><rect x="283.305" y="158.693" width="16.867" height="43.773" rx="8.433" transform="rotate(10.054 283.305 158.693)" fill="#fff"/></mask><g mask="url(#c)"><path fill="#E8E8E8" d="M292.271 158.693l-21.6-3.847-8.331 46.781 21.6 3.847z"/></g><path opacity=".5" d="M222.672 191.284c-5.392 0-8.108-4.25-8.798-6.147-.794-1.587-1.42-5.722.459-9.007 2.389-4.176 13.618-5.341 17.552.559 3.933 5.9 0 14.595-9.213 14.595zm35.731 0c5.393 0 8.108-4.25 8.798-6.147.794-1.587 1.421-5.722-.458-9.007-2.389-4.176-13.619-5.341-17.552.559-3.934 5.9 0 14.595 9.212 14.595z" fill="#E6FCFF"/><path fill-rule="evenodd" clip-rule="evenodd" d="M234.67 175.387c-8.794-7.723-16.738-4.455-21.445-2.519-.523.215-1.007.414-1.447.58l-2.947.005a1 1 0 00-.998 1.009l.022 2.478a1 1 0 001 .991h2.131c-1.544 13.251 8.228 16.797 16.043 14.408 6.968-2.129 8.833-8.154 9.206-11.934 1.49-3.303 8.025-1.777 8.283-.074l.02.134c.307 2.074 1.852 12.522 13.615 12.537 9.635.012 12.248-8.595 12.351-12.901l2.494-.022a1 1 0 00.991-1.009l-.027-3.031a1 1 0 00-1.009-.991l-2.494.022c-6.276-6.358-19.758-5.763-24.507.217-5.239-1.208-9.704-.436-11.282.1zm-11.998 15.897c-5.392 0-8.108-4.25-8.798-6.147-.793-1.587-1.42-5.722.459-9.007 2.389-4.176 13.618-5.341 17.552.559 3.933 5.9 0 14.595-9.213 14.595zm44.53-6.147c-.69 1.897-3.405 6.147-8.798 6.147-9.212 0-13.145-8.695-9.212-14.595s15.163-4.735 17.552-.559c1.879 3.285 1.252 7.42.458 9.007z" fill="#111"/><path d="M164.324 409.064c0-.555.45-1.004 1.005-1.004h154.392c.971 0 1.758.787 1.758 1.758a5.274 5.274 0 01-5.274 5.274H170.352a6.028 6.028 0 01-6.028-6.028z" fill="#B4B4B4"/><rect x="164.324" y="305.524" width="157.155" height="105.147" rx="2.947" fill="url(#paint6_linear)"/><circle cx="242.901" cy="358.098" r="11.177" fill="#fff"/><path fill-rule="evenodd" clip-rule="evenodd" d="M131.238 170.252c.2-3.408.879-6.262 1.446-7.848a26.688 26.688 0 011.848 7.888c2.436.186 5.107.736 7.888 1.849-1.586.567-4.439 1.246-7.848 1.445-.19 3.619-1.12 6.431-1.888 7.871-.935-2.617-1.362-5.308-1.473-7.844-2.535-.111-5.227-.537-7.844-1.472 1.441-.768 4.252-1.699 7.871-1.889z" fill="url(#paint7_linear)"/><path fill-rule="evenodd" clip-rule="evenodd" d="M104.351 147.826c.132-2.269.585-4.169.962-5.224a17.766 17.766 0 011.23 5.25c1.621.124 3.399.49 5.251 1.231-1.056.377-2.955.829-5.224.962-.127 2.409-.746 4.28-1.257 5.239-.622-1.742-.906-3.534-.98-5.221-1.688-.074-3.48-.358-5.221-.98.958-.511 2.83-1.131 5.239-1.257z" fill="url(#paint8_linear)"/><path fill-rule="evenodd" clip-rule="evenodd" d="M61.027 131.848c.2-3.409.88-6.262 1.446-7.848a26.66 26.66 0 011.849 7.888 26.66 26.66 0 017.888 1.849c-1.586.566-4.44 1.246-7.848 1.445-.19 3.619-1.121 6.431-1.89 7.871-.934-2.617-1.36-5.309-1.472-7.844-2.535-.111-5.227-.538-7.843-1.472 1.44-.768 4.252-1.699 7.87-1.889z" fill="url(#paint9_linear)"/><path fill-rule="evenodd" clip-rule="evenodd" d="M64.736 210.189c.294-5.015 1.293-9.213 2.127-11.547a39.225 39.225 0 012.72 11.606 39.211 39.211 0 0111.605 2.72c-2.333.833-6.531 1.833-11.546 2.126-.28 5.324-1.65 9.461-2.78 11.58-1.374-3.85-2.002-7.81-2.165-11.54-3.73-.164-7.69-.791-11.54-2.166 2.118-1.13 6.255-2.5 11.58-2.779z" fill="url(#paint10_linear)"/><circle cx="95.205" cy="180.534" r="1.841" fill="#2F235A"/><circle cx="137.463" cy="127.737" r="1.841" fill="#FE9076"/><circle cx="44.843" cy="173.224" r="1.841" fill="#FFA400"/><circle cx="127.37" cy="208.934" r="1.841" fill="#23BB86"/><path d="M132.951 120.052c-4.163-5.718-15.89-17.931-29.494-21.04" stroke="#FE9076" stroke-width="1.603" stroke-linecap="round"/><path d="M37.074 168.288c-6.153-3.487-21.878-9.766-35.551-6.979" stroke="#FFA400" stroke-width="1.603" stroke-linecap="round"/><path d="M121.05 214.283c-3.153 2.782-10.739 10.684-15.858 20.031" stroke="#23BB86" stroke-width="1.603" stroke-linecap="round"/><path fill-rule="evenodd" clip-rule="evenodd" d="M348.588 170.252c-.199-3.408-.879-6.262-1.445-7.848a26.66 26.66 0 00-1.849 7.888 26.647 26.647 0 00-7.888 1.849c1.586.567 4.439 1.246 7.848 1.445.19 3.619 1.12 6.431 1.889 7.871.934-2.617 1.361-5.308 1.472-7.844 2.535-.111 5.227-.537 7.844-1.472-1.44-.768-4.252-1.699-7.871-1.889z" fill="url(#paint11_linear)"/><path fill-rule="evenodd" clip-rule="evenodd" d="M375.476 147.826c-.133-2.269-.585-4.169-.962-5.224a17.739 17.739 0 00-1.231 5.25c-1.621.124-3.399.49-5.251 1.231 1.056.377 2.955.829 5.224.962.127 2.409.746 4.28 1.258 5.239.622-1.742.905-3.534.98-5.221 1.687-.074 3.479-.358 5.221-.98-.959-.511-2.831-1.131-5.239-1.257z" fill="url(#paint12_linear)"/><path fill-rule="evenodd" clip-rule="evenodd" d="M418.799 131.848c-.2-3.409-.879-6.262-1.446-7.848a26.681 26.681 0 00-1.848 7.888 26.66 26.66 0 00-7.889 1.849c1.586.566 4.44 1.246 7.849 1.445.19 3.619 1.12 6.431 1.888 7.871.935-2.617 1.361-5.309 1.473-7.844 2.535-.111 5.227-.538 7.843-1.472-1.44-.768-4.251-1.699-7.87-1.889z" fill="url(#paint13_linear)"/><path fill-rule="evenodd" clip-rule="evenodd" d="M415.09 210.189c-.294-5.015-1.293-9.213-2.127-11.547a39.244 39.244 0 00-2.72 11.606 39.214 39.214 0 00-11.605 2.72c2.333.833 6.531 1.833 11.546 2.126.28 5.324 1.649 9.461 2.779 11.58 1.375-3.85 2.003-7.81 2.166-11.54 3.73-.164 7.69-.791 11.54-2.166-2.118-1.13-6.255-2.5-11.579-2.779z" fill="url(#paint14_linear)"/><circle r="1.841" transform="matrix(-1 0 0 1 384.621 180.534)" fill="#2F235A"/><circle r="1.841" transform="matrix(-1 0 0 1 342.363 127.737)" fill="#FE9076"/><circle r="1.841" transform="matrix(-1 0 0 1 434.983 173.224)" fill="#FFA400"/><circle r="1.841" transform="matrix(-1 0 0 1 352.456 208.934)" fill="#23BB86"/><path d="M346.875 120.052c4.163-5.718 15.89-17.931 29.494-21.04" stroke="#FE9076" stroke-width="1.603" stroke-linecap="round"/><path d="M442.752 168.288c6.153-3.487 21.878-9.766 35.551-6.979" stroke="#FFA400" stroke-width="1.603" stroke-linecap="round"/><path d="M358.776 214.283c3.153 2.782 10.739 10.684 15.858 20.031" stroke="#23BB86" stroke-width="1.603" stroke-linecap="round"/><path d="M269.949 56.55c-2.088-3.225-6.314-1.468-6.314 2.046 0 2.638 5.794 6.765 6.314 7.302.524-.537 6.03-4.664 6.03-7.302 0-3.487-3.938-5.27-6.03-2.045z" fill="#FFBCBC"/><circle cx="269.807" cy="60.376" r="13.8" stroke="#F7F7F7" stroke-width=".65"/><path d="M220.426 37.317c-1.848-2.854-5.588-1.3-5.588 1.81 0 2.336 5.128 5.988 5.588 6.463.464-.475 5.337-4.127 5.337-6.463 0-3.086-3.485-4.664-5.337-1.81z" fill="#FFBCBC"/><circle cx="220.3" cy="40.703" r="12.213" stroke="#F7F7F7" stroke-width=".575"/><path d="M253.109 16.342c-1.264-1.952-3.823-.888-3.823 1.238 0 1.597 3.508 4.096 3.823 4.42.317-.325 3.649-2.823 3.649-4.42 0-2.11-2.383-3.19-3.649-1.238z" fill="#FFBCBC"/><circle cx="253.022" cy="18.658" r="8.353" stroke="#F7F7F7" stroke-width=".393"/><path d="M195.379 5.478c-1.034-1.597-3.127-.727-3.127 1.013 0 1.307 2.869 3.351 3.127 3.617.259-.266 2.986-2.31 2.986-3.617 0-1.727-1.95-2.61-2.986-1.013z" fill="#FFBCBC"/><circle cx="195.308" cy="7.373" r="6.835" stroke="#F7F7F7" stroke-width=".322"/><path d="M190.292 80.364c-2.258-3.488-6.828-1.588-6.828 2.212 0 2.853 6.265 7.316 6.828 7.896.567-.58 6.521-5.043 6.521-7.896 0-3.77-4.259-5.7-6.521-2.212z" fill="#FFBCBC"/><circle cx="190.138" cy="84.5" r="14.923" stroke="#F7F7F7" stroke-width=".703"/><defs><linearGradient id="paint0_linear" x1="391.304" y1="158.698" x2="393.951" y2="334.566" gradientUnits="userSpaceOnUse"><stop stop-color="#FFEFE0"/><stop offset="1" stop-color="#FFBE99"/></linearGradient><linearGradient id="paint1_linear" x1="242.798" y1="200.585" x2="230.398" y2="448.923" gradientUnits="userSpaceOnUse"><stop stop-color="#FF9F81"/><stop offset="1" stop-color="#F53838"/></linearGradient><linearGradient id="paint2_linear" x1="227.733" y1="287.86" x2="109.061" y2="344.735" gradientUnits="userSpaceOnUse"><stop offset=".068" stop-color="#FFEFE0"/><stop offset="1" stop-color="#FFBE99"/></linearGradient><linearGradient id="paint3_linear" x1="238.727" y1="173.352" x2="240.807" y2="239.738" gradientUnits="userSpaceOnUse"><stop stop-color="#FFEFE0"/><stop offset="1" stop-color="#FFBE99"/></linearGradient><linearGradient id="paint4_linear" x1="238.727" y1="173.352" x2="235.813" y2="248.983" gradientUnits="userSpaceOnUse"><stop stop-color="#FFEFE0"/><stop offset="1" stop-color="#FFBE99"/></linearGradient><linearGradient id="paint5_linear" x1="242.184" y1="137.96" x2="242.184" y2="217.679" gradientUnits="userSpaceOnUse"><stop stop-color="#FFEFE0"/><stop offset="1" stop-color="#FFBE99"/></linearGradient><linearGradient id="paint6_linear" x1="275.352" y1="226.611" x2="217.247" y2="435.106" gradientUnits="userSpaceOnUse"><stop offset=".017" stop-color="#fff"/><stop offset="1" stop-color="#D7D7D7"/></linearGradient><linearGradient id="paint7_linear" x1="132.894" y1="164.432" x2="132.894" y2="182.322" gradientUnits="userSpaceOnUse"><stop stop-color="#FFE89E"/><stop offset="1" stop-color="#FFBF1A"/></linearGradient><linearGradient id="paint8_linear" x1="105.453" y1="143.952" x2="105.453" y2="155.859" gradientUnits="userSpaceOnUse"><stop stop-color="#FFE89E"/><stop offset="1" stop-color="#FFBF1A"/></linearGradient><linearGradient id="paint9_linear" x1="62.683" y1="126.028" x2="62.683" y2="143.917" gradientUnits="userSpaceOnUse"><stop stop-color="#FFE89E"/><stop offset="1" stop-color="#FFBF1A"/></linearGradient><linearGradient id="paint10_linear" x1="67.172" y1="201.626" x2="67.172" y2="227.946" gradientUnits="userSpaceOnUse"><stop stop-color="#FFE89E"/><stop offset="1" stop-color="#FFBF1A"/></linearGradient><linearGradient id="paint11_linear" x1="346.932" y1="164.432" x2="346.932" y2="182.322" gradientUnits="userSpaceOnUse"><stop stop-color="#FFE89E"/><stop offset="1" stop-color="#FFBF1A"/></linearGradient><linearGradient id="paint12_linear" x1="374.373" y1="143.952" x2="374.373" y2="155.859" gradientUnits="userSpaceOnUse"><stop stop-color="#FFE89E"/><stop offset="1" stop-color="#FFBF1A"/></linearGradient><linearGradient id="paint13_linear" x1="417.143" y1="126.028" x2="417.143" y2="143.917" gradientUnits="userSpaceOnUse"><stop stop-color="#FFE89E"/><stop offset="1" stop-color="#FFBF1A"/></linearGradient><linearGradient id="paint14_linear" x1="412.654" y1="201.626" x2="412.654" y2="227.946" gradientUnits="userSpaceOnUse"><stop stop-color="#FFE89E"/><stop offset="1" stop-color="#FFBF1A"/></linearGradient><filter id="filter0_d" x="154.729" y="78.062" width="173.661" height="125.955" filterUnits="userSpaceOnUse" color-interpolation-filters="sRGB"><feFlood flood-opacity="0" result="BackgroundImageFix"/><feColorMatrix in="SourceAlpha" values="0 0 0 0 0 0 0 0 0 0 0 0 0 0 0 0 0 0 127 0"/><feOffset dy="4"/><feGaussianBlur stdDeviation="17"/><feColorMatrix values="0 0 0 0 0.0386285 0 0 0 0 0.0648437 0 0 0 0 0.104167 0 0 0 0.13 0"/><feBlend in2="BackgroundImageFix" result="effect1_dropShadow"/><feBlend in="SourceGraphic" in2="effect1_dropShadow" result="shape"/></filter><filter id="filter1_d" x="257.836" y="142.751" width="76.189" height="88.775" filterUnits="userSpaceOnUse" color-interpolation-filters="sRGB"><feFlood flood-opacity="0" result="BackgroundImageFix"/><feColorMatrix in="SourceAlpha" values="0 0 0 0 0 0 0 0 0 0 0 0 0 0 0 0 0 0 127 0"/><feOffset dy="4"/><feGaussianBlur stdDeviation="17"/><feColorMatrix values="0 0 0 0 0.0386285 0 0 0 0 0.0648437 0 0 0 0 0.104167 0 0 0 0.13 0"/><feBlend in2="BackgroundImageFix" result="effect1_dropShadow"/><feBlend in="SourceGraphic" in2="effect1_dropShadow" result="shape"/></filter><filter id="filter2_d" x="243.005" y="130.034" width="89.567" height="111.363" filterUnits="userSpaceOnUse" color-interpolation-filters="sRGB"><feFlood flood-opacity="0" result="BackgroundImageFix"/><feColorMatrix in="SourceAlpha" values="0 0 0 0 0 0 0 0 0 0 0 0 0 0 0 0 0 0 127 0"/><feOffset dy="4"/><feGaussianBlur stdDeviation="17"/><feColorMatrix values="0 0 0 0 0.0386285 0 0 0 0 0.0648437 0 0 0 0 0.104167 0 0 0 0.13 0"/><feBlend in2="BackgroundImageFix" result="effect1_dropShadow"/><feBlend in="SourceGraphic" in2="effect1_dropShadow" result="shape"/></filter><filter id="filter3_d" x="147.203" y="142.751" width="76.189" height="88.775" filterUnits="userSpaceOnUse" color-interpolation-filters="sRGB"><feFlood flood-opacity="0" result="BackgroundImageFix"/><feColorMatrix in="SourceAlpha" values="0 0 0 0 0 0 0 0 0 0 0 0 0 0 0 0 0 0 127 0"/><feOffset dy="4"/><feGaussianBlur stdDeviation="17"/><feColorMatrix values="0 0 0 0 0.0386285 0 0 0 0 0.0648437 0 0 0 0 0.104167 0 0 0 0.13 0"/><feBlend in2="BackgroundImageFix" result="effect1_dropShadow"/><feBlend in="SourceGraphic" in2="effect1_dropShadow" result="shape"/></filter><filter id="filter4_d" x="148.504" y="130.034" width="89.567" height="111.363" filterUnits="userSpaceOnUse" color-interpolation-filters="sRGB"><feFlood flood-opacity="0" result="BackgroundImageFix"/><feColorMatrix in="SourceAlpha" values="0 0 0 0 0 0 0 0 0 0 0 0 0 0 0 0 0 0 127 0"/><feOffset dy="4"/><feGaussianBlur stdDeviation="17"/><feColorMatrix values="0 0 0 0 0.0386285 0 0 0 0 0.0648437 0 0 0 0 0.104167 0 0 0 0.13 0"/><feBlend in2="BackgroundImageFix" result="effect1_dropShadow"/><feBlend in="SourceGraphic" in2="effect1_dropShadow" result="shape"/></filter></defs></svg>